<?xml version="1.0" encoding="utf-8"?>
<!-- Generator: Adobe Illustrator 27.5.0, SVG Export Plug-In . SVG Version: 6.00 Build 0)  -->
<svg version="1.1" xmlns="http://www.w3.org/2000/svg" xmlns:xlink="http://www.w3.org/1999/xlink" x="0px" y="0px"
	 viewBox="0 0 569.067 500" style="enable-background:new 0 0 569.067 500;" xml:space="preserve">
<g id="BACKGROUND">
	<g>
		<g>
			<rect style="fill:#FFFFFF;" width="569.067" height="500"/>
			<rect style="fill:none;stroke:#FFFFFF;stroke-width:1.0668;stroke-miterlimit:10;" width="569.067" height="500"/>
		</g>
	</g>
</g>
<g id="OBJECTS">
	<g>
		<g>
			<g>
				<g>
					<g>
						<path style="fill:#122937;" d="M166.958,360.014c-0.064,1.591,13.562,22.586,17.813,29.094
							c0.948,1.452,2.342,2.539,3.978,3.113c1.903,0.667,4.65,1.322,7.747,1.101c3.997-0.285,5.023-5.388,5.271-8.611
							c0.118-1.529-0.111-3.061-0.651-4.496l-10.767-28.581L166.958,360.014z"/>
						<g>
							<path style="fill:none;stroke:#FFFFFF;stroke-width:0.899;stroke-miterlimit:10;" d="M178.259,365.421
								c0,0,6.628,2.145,10.266-3.797"/>
							<path style="fill:none;stroke:#FFFFFF;stroke-width:0.899;stroke-miterlimit:10;" d="M179.87,368.668
								c0,0,6.628,2.145,10.266-3.797"/>
							<path style="fill:none;stroke:#FFFFFF;stroke-width:0.899;stroke-miterlimit:10;" d="M181.481,371.914
								c0,0,6.628,2.145,10.266-3.797"/>
							<path style="fill:none;stroke:#FFFFFF;stroke-width:0.899;stroke-miterlimit:10;" d="M183.093,375.161
								c0,0,6.628,2.145,10.266-3.797"/>
						</g>
					</g>
					<g>
						<path style="fill:#122937;" d="M179.512,297.724c0.492-0.505,32.992,7.517,46.969-1.883l0,0c0-2.912-1.826-5.511-4.565-6.499
							l-24.223-8.736l-19.037,12.066L179.512,297.724z"/>
						<g>
							<defs>
								<path id="SVGID_1_" d="M179.512,297.724c0.492-0.505,32.992,7.517,46.969-1.883l0,0c0-2.912-1.826-5.511-4.565-6.499
									l-24.223-8.736l-19.037,12.066L179.512,297.724z"/>
							</defs>
							<clipPath id="SVGID_00000078739582886147854880000015741687138081635717_">
								<use xlink:href="#SVGID_1_"  style="overflow:visible;"/>
							</clipPath>
							<g style="clip-path:url(#SVGID_00000078739582886147854880000015741687138081635717_);">
								<path style="fill:none;stroke:#FFFFFF;stroke-width:0.899;stroke-miterlimit:10;" d="M198.955,286.939
									c0,0,5.643-4.085,2.994-10.528"/>
								<path style="fill:none;stroke:#FFFFFF;stroke-width:0.899;stroke-miterlimit:10;" d="M202.527,287.555
									c0,0,5.643-4.085,2.994-10.528"/>
								<path style="fill:none;stroke:#FFFFFF;stroke-width:0.899;stroke-miterlimit:10;" d="M206.099,288.17
									c0,0,5.643-4.085,2.994-10.528"/>
								<path style="fill:none;stroke:#FFFFFF;stroke-width:0.899;stroke-miterlimit:10;" d="M209.671,288.785
									c0,0,5.643-4.085,2.994-10.528"/>
							</g>
						</g>
					</g>
				</g>
				<g>
					<path style="fill:#A44926;" d="M129.29,215.323c0,0,1.321,75.469,34.786,145.752c0,0,24.443,9.089,30.327-12.879
						c0,0-9.157-28.636-11.836-53.741c0,0,12.62-2.594,16.151-13.85c0,0-4.707-18.882-1.569-43.512
						c3.138-24.63,5.694-28.992,5.397-47.206L129.29,215.323z"/>
					<g>
						<defs>
							<path id="SVGID_00000031174919760723387890000014597256456538043060_" d="M129.29,215.323c0,0,1.321,75.469,34.786,145.752
								c0,0,24.443,9.089,30.327-12.879c0,0-9.157-28.636-11.836-53.741c0,0,12.62-2.594,16.151-13.85
								c0,0-4.707-18.882-1.569-43.512c3.138-24.63,5.694-28.992,5.397-47.206L129.29,215.323z"/>
						</defs>
						<clipPath id="SVGID_00000036956694091491476430000001212137396641387910_">
							<use xlink:href="#SVGID_00000031174919760723387890000014597256456538043060_"  style="overflow:visible;"/>
						</clipPath>
						<g style="clip-path:url(#SVGID_00000036956694091491476430000001212137396641387910_);">
							<path style="fill:none;stroke:#451E10;stroke-width:0.899;stroke-miterlimit:10;" d="M181.739,288.664
								c0,0,13.688-4.604,17.218-15.86"/>
							<path style="fill:none;stroke:#451E10;stroke-width:0.899;stroke-miterlimit:10;" d="M182.566,294.455
								c-6.448-42.632-5.625-54.555-5.625-54.555l2.951-2.057c2.268-1.581,3.656-4.14,3.744-6.903l0.528-23.391"/>
							
								<line style="fill:none;stroke:#451E10;stroke-width:0.899;stroke-miterlimit:10;" x1="178.385" y1="238.894" x2="178.385" y2="211.135"/>
							<path style="fill:none;stroke:#451E10;stroke-width:0.899;stroke-miterlimit:10;" d="M157.737,353.353
								c0,0,27.73,10.804,34.406-15.309"/>
							<path style="fill:none;stroke:#451E10;stroke-width:0.899;stroke-miterlimit:10;" d="M165.124,355.586
								c0,0-20.016-44.901-28.928-100.254c0,0,10.094-4.831,6.94-19.235"/>
						</g>
					</g>
				</g>
			</g>
			<g>
				<g>
					<g>
						<path style="fill:#122937;" d="M99.53,124.223c0.509,0.04,24.506-47.916,82.837-41.489c0,0,14.328,14.312,14.836,43.055
							s5.341,64.098,5.341,64.098s-28.997,43.495-73.255,25.436l-9.157-52.143L99.53,124.223z"/>
						<g>
							<g>
								<path style="fill:#FFB19D;" d="M128.628,249.182c1.551,1.237,4.888,4.73,7.568,6.149c0,0,9.991-5.732,6.94-19.235
									l-3.314-2.523L128.628,249.182z"/>
								<path style="fill:none;stroke:#451E10;stroke-width:0.899;stroke-miterlimit:10;" d="M136.196,255.331
									c0,0,10.094-4.831,6.94-19.235"/>
							</g>
							<path style="fill:#122937;" d="M99.53,124.223c0,0-22.29,48.223-8.91,88.885c2.119,6.439,6.899,12.259,11.91,18.454
								c0,0,13.504,14.678,26.662,19.805c0,0,13.287-4.222,12.086-18.073c-0.036-0.411-12.375-12.478-13.263-13.676
								c-6.598-8.899-7.131-13.584-6.749-24.834c0.301-8.842,3.052-23.235,3.424-32.144c0.346-8.294-4.195-36.622-22.918-38.417"/>
						</g>
					</g>
					<g>
						<path style="fill:#FFB19D;" d="M253.889,62.37c-0.187-1.112-0.072-3.03,1.633-2.373c0.483,0.186,0.86,0.57,1.197,0.963
							c1.451,1.691,2.452,3.73,3.901,5.423c1.256,1.467,1.233-0.75,1.486-1.702c0.407-1.533,0.711-3.092,1.132-4.622
							c0.699-2.54,1.364-5.089,1.993-7.647c0.388-1.577,0.443-2.755,1.491-3.996c1.04-1.232,2.784-0.256,3.182,0.873
							c0.27,0.766,0.26,1.6,0.206,2.411c-0.199,2.999-0.955,5.919-1.362,8.89c-0.087,0.635-0.659,2.231-0.238,2.793
							c0.813,1.085,1.603-2.13,1.849-2.742c1.231-3.071,2.599-6.086,4.098-9.035c0.469-0.922,0.943-1.944,1.927-2.261
							c2.732-0.88,2.803,1.459,2.587,2.639c-0.55,3.001-1.416,4.899-2.713,8.092c-0.638,1.572-1.815,3.741-2.376,5.605
							c0.471,0.003,3.193-4.338,3.687-5.281c0.396-0.755,3.773-7.677,6.214-6.334c2.675,1.443-1.71,9.07-2.661,10.735
							c-0.421,0.737-1.038,1.384-2.091,4c-0.067,0.167,5.373-4.846,5.734-5.133c1.218-0.971,2.599-0.061,2.987,1.332
							c0.32,1.149-0.54,2.093-1.234,2.923c-5.629,6.731-8.359,16.963-12.717,24.396c-1.045,1.782-2.463,3.599-4.493,3.982
							c-0.401,0.076-0.825,0.089-1.206-0.057c-0.387-0.148-0.695-0.446-0.988-0.74c-2.174-2.185-4.126-4.59-5.823-7.164
							c-1.478-2.242-3.525-5.113-4.015-7.799c-0.517-2.835-0.271-5.762-0.905-8.639c-0.505-2.291-1.166-4.543-1.786-6.805
							C254.499,64.786,254.085,63.536,253.889,62.37z"/>
						<g>
							<path style="fill:#122937;" d="M182.367,82.734c0,0,25.895,14.63,52.636,27.847l20.382-35.236l21.249,13.327l-30.056,54.565
								c0,0-3.277,6.508-12.076,4.562c-10.745-2.377-41.346-13.848-41.346-13.848l-0.222-31.741L182.367,82.734z"/>
							<g>
								<defs>
									<path id="SVGID_00000155855113741489847100000011719470218124236990_" d="M182.367,82.734c0,0,25.895,14.63,52.636,27.847
										l20.382-35.236l21.249,13.327l-30.056,54.565c0,0-3.277,6.508-12.076,4.562c-10.745-2.377-41.346-13.848-41.346-13.848
										l-0.222-31.741L182.367,82.734z"/>
								</defs>
								<clipPath id="SVGID_00000161619346401558452740000015834889327884152750_">
									<use xlink:href="#SVGID_00000155855113741489847100000011719470218124236990_"  style="overflow:visible;"/>
								</clipPath>
								
									<line style="clip-path:url(#SVGID_00000161619346401558452740000015834889327884152750_);fill:none;stroke:#FFFFFF;stroke-width:0.899;stroke-miterlimit:10;" x1="245.467" y1="80.674" x2="279.13" y2="106.519"/>
							</g>
						</g>
					</g>
				</g>
				<g>
					<defs>
						<path id="SVGID_00000069369056533012963860000011492519470301987486_" d="M207.411,144.791
							c-7.424-45.654-25.044-62.057-25.044-62.057c-58.332-6.427-82.328,41.529-82.837,41.489c0,0-22.29,48.223-8.91,88.885
							c2.119,6.439,6.899,12.259,11.91,18.454c0,0,13.504,14.678,26.662,19.805c0,0,13.287-4.222,12.086-18.073
							c-0.036-0.411-12.375-12.478-13.263-13.676c-6.598-8.899-7.131-13.584-6.749-24.834c0.148-4.348,0.889-10.04,1.648-15.762
							l6.375,36.301c44.258,18.059,73.255-25.436,73.255-25.436"/>
					</defs>
					<clipPath id="SVGID_00000158745894308152383790000010633832583049311367_">
						<use xlink:href="#SVGID_00000069369056533012963860000011492519470301987486_"  style="overflow:visible;"/>
					</clipPath>
					<g style="clip-path:url(#SVGID_00000158745894308152383790000010633832583049311367_);">
						<path style="fill:none;stroke:#FFFFFF;stroke-width:0.899;stroke-miterlimit:10;" d="M167.315,124.223
							c2.697,14.344,5.078,28.745,7.405,43.154c2.248,13.924,4.998,29.182,5.816,43.284"/>
						<path style="fill:none;stroke:#FFFFFF;stroke-width:0.899;stroke-miterlimit:10;" d="M164.075,126.406
							c0,0-4.548,1.687-7.385,8.741c0,0-0.69,3.374-4.984-1.38c-4.294-4.754-24.381-33.716-11.5-42.763"/>
						<path style="fill:none;stroke:#FFFFFF;stroke-width:0.899;stroke-miterlimit:10;" d="M170.923,124.223
							c0,0,4.89-0.078,7.227,1.661c0.413,0.307,1.008,0.047,1.09-0.461c0.689-4.234,2.673-15.809-4.301-27.033"/>
						<path style="fill:none;stroke:#FFFFFF;stroke-width:1.076;stroke-miterlimit:10;" d="M120.236,247.93
							c0,0,15.904-5.053,14.466-21.632"/>
						<path style="fill:none;stroke:#FFFFFF;stroke-width:0.899;stroke-miterlimit:10;" d="M123.235,173.524
							c0.749-3.614,1.305-7.25,1.456-10.884c0.346-8.294-4.195-36.622-22.918-38.417"/>
						<path style="fill:none;stroke:#FFFFFF;stroke-width:0.899;stroke-miterlimit:10;" d="M182.367,82.734
							c0,0,14.328,14.312,14.836,43.055c0.037,2.104,0.233,5.603,0.52,9.852"/>
						<path style="fill:none;stroke:#FFFFFF;stroke-width:0.899;stroke-miterlimit:10;" d="M113.241,129.758
							c0,0,9.314-14.414,22.955-26.28"/>
						
							<line style="fill:none;stroke:#FFFFFF;stroke-width:1.076;stroke-miterlimit:10;" x1="244.668" y1="116.618" x2="259.285" y2="152.449"/>
						<g>
							<path style="fill:#FFFFFF;" d="M173.922,132.274c-0.039,0.502-0.478,0.877-0.98,0.838c-0.502-0.039-0.877-0.478-0.837-0.98
								s0.478-0.877,0.979-0.838C173.587,131.333,173.962,131.772,173.922,132.274z"/>
							<path style="fill:#FFFFFF;" d="M174.947,139.473c-0.039,0.502-0.478,0.877-0.98,0.838s-0.877-0.478-0.838-0.98
								s0.478-0.877,0.98-0.837S174.986,138.972,174.947,139.473z"/>
							<path style="fill:#FFFFFF;" d="M175.971,146.673c-0.039,0.502-0.478,0.877-0.98,0.838s-0.877-0.478-0.838-0.98
								s0.478-0.877,0.98-0.838C175.635,145.733,176.01,146.172,175.971,146.673z"/>
							<path style="fill:#FFFFFF;" d="M176.995,153.873c-0.039,0.502-0.478,0.877-0.98,0.838c-0.502-0.039-0.877-0.478-0.838-0.98
								s0.478-0.877,0.98-0.838S177.034,153.372,176.995,153.873z"/>
							<path style="fill:#FFFFFF;" d="M178.019,161.073c-0.039,0.502-0.478,0.877-0.98,0.838s-0.877-0.478-0.838-0.98
								c0.039-0.502,0.478-0.877,0.98-0.838S178.058,160.572,178.019,161.073z"/>
							<path style="fill:#FFFFFF;" d="M179.043,168.273c-0.039,0.502-0.478,0.877-0.979,0.837s-0.877-0.478-0.838-0.979
								s0.478-0.877,0.98-0.838S179.082,167.771,179.043,168.273z"/>
							<path style="fill:#FFFFFF;" d="M180.067,175.473c-0.039,0.502-0.478,0.877-0.979,0.838c-0.502-0.039-0.877-0.478-0.838-0.98
								c0.039-0.502,0.478-0.877,0.979-0.838C179.732,174.533,180.107,174.971,180.067,175.473z"/>
							<path style="fill:#FFFFFF;" d="M181.092,182.673c-0.039,0.502-0.478,0.877-0.98,0.838s-0.877-0.478-0.837-0.98
								c0.039-0.502,0.478-0.877,0.979-0.837S181.131,182.171,181.092,182.673z"/>
							<path style="fill:#FFFFFF;" d="M182.116,189.873c-0.039,0.502-0.478,0.877-0.98,0.838s-0.877-0.478-0.838-0.98
								s0.478-0.877,0.98-0.838S182.155,189.371,182.116,189.873z"/>
							<path style="fill:#FFFFFF;" d="M183.14,197.073c-0.039,0.502-0.478,0.877-0.98,0.838s-0.877-0.478-0.838-0.98
								s0.478-0.877,0.98-0.838C182.804,196.133,183.179,196.571,183.14,197.073z"/>
							<path style="fill:#FFFFFF;" d="M184.164,204.273c-0.039,0.502-0.478,0.877-0.98,0.838c-0.502-0.039-0.877-0.478-0.837-0.98
								c0.039-0.502,0.478-0.877,0.98-0.838C183.828,203.333,184.203,203.771,184.164,204.273z"/>
						</g>
					</g>
				</g>
			</g>
		</g>
		<g>
			<g>
				<path style="fill:#FFB19D;" d="M141.279,82.734v16.33c0,3.007,1.043,5.92,2.971,8.227c3.731,4.463,11.132,11.719,23.065,16.932
					c0,0,5.715-11.431,4.657-33.445L141.279,82.734z"/>
				<path style="fill:#052A3D;" d="M172.038,99.817c-2.261,1.893-5.292,2.224-5.292,2.224c-10.158,1.693-17.318-4.231-21.797-10.155
					c0,0,9.415,21.459,26.309,17.158L172.038,99.817z"/>
			</g>
			<g>
				<path style="fill:#FFB19D;" d="M180.194,62.669c0.117,0.047,0.341,0.007,0.628-0.059c1.308-0.301,3.926-1.15,3.704,3.172
					c-0.271,5.269-3.906,10.269-3.906,10.269"/>
				<g>
					<g>
						<path style="fill:#FFB19D;" d="M139.133,81.437c0,0,8.496,23.79,27.613,20.604c19.117-3.186,13.382-48.43,13.382-48.43
							l-2.761-9.983c0,0-8.921-5.098-9.346-5.735c-0.425-0.637-15.007-2.549-15.007-2.549l-10.694,2.124c0,0-7.01,7.859-7.434,8.496
							c-0.425,0.637-0.637,11.683-0.637,11.683l4.342,12.704c0,0-8.803-7.394-6.254,3.439
							C134.885,84.623,139.133,81.437,139.133,81.437z"/>
						<g>
							
								<path style="fill:none;stroke:#000000;stroke-width:0.899;stroke-linecap:round;stroke-linejoin:round;stroke-miterlimit:10;" d="
								M164.075,82.318c1.101,0,2.701-0.51,3.969-1.466c0.831-0.626,1-1.804,0.382-2.64c-0.857-1.158-2.121-2.975-3.068-4.795"/>
							
								<path style="fill:none;stroke:#000000;stroke-width:0.899;stroke-linecap:round;stroke-linejoin:round;stroke-miterlimit:10;" d="
								M152.324,84.295c0,0,1.451,4.571,7.769,4.436"/>
							
								<path style="fill:none;stroke:#000000;stroke-width:0.899;stroke-linecap:round;stroke-linejoin:round;stroke-miterlimit:10;" d="
								M133.441,70.925c0,0,4.375,1.248,5.149,6.178"/>
							<g>
								<g>
									
										<path style="fill:none;stroke:#000000;stroke-width:0.899;stroke-linecap:round;stroke-linejoin:round;stroke-miterlimit:10;" d="
										M166.984,65.082c0,0,3.219-1.934,7.998-0.548"/>
									<path d="M172.22,66.616c-0.449,0.778-1.443,1.046-2.221,0.597c-0.778-0.448-1.046-1.443-0.597-2.221
										c0.449-0.778,1.443-1.046,2.221-0.597C172.401,64.843,172.668,65.837,172.22,66.616z"/>
									
										<path style="fill:none;stroke:#000000;stroke-width:0.899;stroke-linecap:round;stroke-linejoin:round;stroke-miterlimit:10;" d="
										M147.306,66.575c0,0,3.219-1.934,7.998-0.549"/>
									<path d="M152.541,68.109c-0.448,0.778-1.443,1.046-2.221,0.597s-1.046-1.443-0.597-2.221
										c0.449-0.778,1.443-1.046,2.221-0.597C152.722,66.336,152.989,67.33,152.541,68.109z"/>
								</g>
								<path style="fill:#122937;" d="M145.024,63.199c0.311,0.141,0.86-0.03,1.128-0.104c0.835-0.229,1.673-0.364,2.531-0.497
									c2.013-0.311,4.031-0.591,6.049-0.864c0.628-0.085,1.257-0.169,1.885-0.251c0.176-0.023,0.43-0.01,0.595-0.078
									c0.409-0.169,0.35-0.728,0.109-1.016c-0.323-0.385-0.886-0.309-1.332-0.404c-1.702-0.362-3.453-0.614-5.197-0.582
									c-1.368,0.025-2.684,0.561-3.844,1.255c-0.468,0.28-0.948,0.542-1.386,0.869c-0.309,0.231-0.784,0.905-0.764,1.305
									C144.808,63.028,144.895,63.14,145.024,63.199z"/>
								<path style="fill:#122937;" d="M177.218,61.408c-0.295,0.171-0.859,0.056-1.132,0.009c-0.854-0.145-1.701-0.196-2.567-0.243
									c-2.034-0.11-4.069-0.188-6.105-0.258c-0.633-0.022-1.267-0.043-1.901-0.063c-0.178-0.006-0.429,0.033-0.599-0.018
									c-0.424-0.127-0.421-0.69-0.209-1c0.284-0.415,0.851-0.396,1.285-0.534c1.658-0.53,3.375-0.954,5.113-1.096
									c1.364-0.111,2.727,0.292,3.95,0.867c0.493,0.232,0.997,0.445,1.465,0.728c0.331,0.2,0.87,0.823,0.89,1.222
									C177.417,61.217,177.34,61.337,177.218,61.408z"/>
							</g>
						</g>
					</g>
					<path style="fill:#122937;" d="M137.091,70.511c0.839,1.087,1.678,2.174,2.517,3.261c0.05,0.065,0.103,0.132,0.177,0.168
						c0.229,0.112,0.472-0.13,0.586-0.358c1.289-2.571-1.827-5.382-1.569-8.246c0.219-2.439,2.511-4.117,2.976-6.524
						c0.393-2.034,0.628-4.296-0.001-6.294c-0.6-1.904-1.484-3.934-0.811-5.814c0.771-2.155,3.304-3.148,5.59-3.247
						c2.146-0.093,4.313,0.376,6.229,1.346c3.446,1.746,4.621,0.913,7.215-1.584c1.767-1.701,4.471-2.026,6.501-0.407
						c0.938,0.748,1.626,1.852,2.738,2.3c0.996,0.401,2.135,0.19,3.178,0.445c1.56,0.38,5.258,0.618,5.837,2.116
						c0.928,2.403,0.734,5.442,1.037,7.982c0.442,3.703,0.884,7.406,1.326,11.109c0.043,0.36,0.093,0.738,0.307,1.031
						c0.215,0.293,0.653,0.455,0.951,0.248c0.289-0.2,0.307-0.613,0.303-0.965c-0.016-1.596,0.131-3.193,0.437-4.759
						c0.288-1.474,0.934-2.622,1.374-4.011c0.917-2.891,1.545-6.17,0.162-9.024c-0.702-1.448-1.82-2.675-2.438-4.161
						c-1.237-2.975-0.278-6.427-1.033-9.559c-0.872-3.617-4.518-6.557-8.199-6.014c-1.781,0.263-3.461,1.256-5.255,1.116
						c-0.971-0.076-1.882-0.482-2.754-0.914c-2.694-1.335-5.284-3.002-8.223-3.636c-2.939-0.634-6.437,0.058-8.074,2.579
						c-0.345,0.531-0.605,1.135-1.079,1.555c-0.754,0.669-1.855,0.717-2.862,0.756c-3.581,0.139-7.252,0.629-10.378,2.381
						c-1.686,0.945-3.334,2.75-2.729,4.585c0.203,0.615,0.639,1.131,0.855,1.742c0.449,1.275-0.156,2.704-1.043,3.726
						c-0.886,1.021-2.037,1.778-2.977,2.75c-1.544,1.597-2.414,4.274-1.019,6.003c0.405,0.502,0.957,0.865,1.383,1.349
						c1.267,1.441,1.171,3.626,0.681,5.481c-0.49,1.855-1.304,3.677-1.234,5.595c0.07,1.918,1.457,3.993,3.375,3.928
						c0.7-0.024,1.365-0.327,2.064-0.375c1.412-0.098,2.686,0.847,3.625,1.906c0.938,1.059,1.707,2.297,2.852,3.128"/>
				</g>
			</g>
		</g>
	</g>
	<g>
		<g>
			<path style="fill:#F5804C;" d="M281.014,119.758l26.923,27.267l9.965-16.741l20.338,29.326l-18.993,22.216
				c0,0-5.037,6.459-11.843,2.046c-6.807-4.413-43.4-51.829-43.4-51.829L281.014,119.758z"/>
			<g>
				<g>
					<g>
						<path style="fill:#F5804C;" d="M264.004,132.044c0,0-9.856-7.349-10.651-12.834c-0.795-5.485,5.848-8.034,5.848-8.034
							l11.976-3.76l5.485,2.535c0,0,1.631,0.798,2.352,3.594c0.143,0.556,2.449,5.257,2.001,6.214
							c-1.803,3.855-7.441,9.069-7.441,9.069L264.004,132.044z"/>
						<path style="fill:#F5804C;" d="M259.646,112.301c-1.919-2.838-3.838-5.676-5.758-8.514c-0.655-0.968-1.338-2.04-1.234-3.204
							c0.104-1.168,1.109-2.193,2.275-2.32c1.61-0.176,2.96,1.142,3.997,2.386c2.196,2.634,4.188,5.439,5.951,8.381
							c0.014,0.023,0.225,0.297,0.241,0.318C263.897,111.091,261.766,112.1,259.646,112.301z"/>
						<path style="fill:#F5804C;" d="M264.646,109.503c-1.237-3.195-2.466-6.809-3.703-10.004c-0.422-1.09-0.848-2.287-0.487-3.398
							c0.363-1.116,1.571-1.889,2.736-1.753c1.609,0.189,2.63,1.774,3.363,3.219c1.552,3.059,2.867,6.237,3.929,9.499
							c0.008,0.026,0.153,0.339,0.164,0.364C269.067,108.855,266.757,109.781,264.646,109.503z"/>
					</g>
					<g>
						
							<path style="fill:none;stroke:#000000;stroke-width:0.8628;stroke-linecap:round;stroke-linejoin:round;stroke-miterlimit:10;" d="
							M270.646,107.703l-5.371-1.13c0,0-2.774-0.597-3.189,2.169c-0.337,2.247,3.852,3.69,5.434,4.152
							c0.248,0.072,0.359,0.361,0.22,0.578c-0.383,0.598-0.795,1.906,0.206,4.355"/>
						
							<path style="fill:none;stroke:#000000;stroke-width:0.8628;stroke-linecap:round;stroke-linejoin:round;stroke-miterlimit:10;" d="
							M258.058,111.753c0.952-0.868,2.38-0.962,3.317-0.603c0.937,0.359,1.642,1.142,2.257,1.934
							c0.402,0.517,0.783,1.051,1.142,1.599c0.486,0.742,0.94,1.536,1.065,2.415c0.284,1.992-2.226,4.034-3.748,2.691
							c-0.294-0.259-0.566-0.525-0.822-0.793"/>
						
							<path style="fill:none;stroke:#000000;stroke-width:0.8628;stroke-linecap:round;stroke-linejoin:round;stroke-miterlimit:10;" d="
							M253.913,115.301c0.43-0.907,1.623-1.241,2.594-0.986c0.971,0.255,1.756,0.956,2.455,1.677
							c0.456,0.47,0.893,0.959,1.309,1.465c0.564,0.685,1.102,1.425,1.322,2.285c0.312,1.217-0.443,2.606-1.537,3.163
							c-1.027,0.522-2.014-0.076-2.825-0.706c-0.978-0.759-1.909-1.558-2.814-2.402"/>
					</g>
				</g>
			</g>
		</g>
		<g>
			<g>
				<g>
					<g>
						<g>
							<path style="fill:#122937;" d="M342.447,313.898c-0.582-0.398-30.52,15.926-46.079,9.474l0,0
								c-0.576-2.855,0.701-5.764,3.191-7.273l22.018-13.35l21.046,8.066L342.447,313.898z"/>
							<g>
								<defs>
									<path id="SVGID_00000084531006855549884280000000814017849165874866_" d="M342.447,313.898
										c-0.582-0.398-30.52,15.926-46.079,9.474l0,0c-0.576-2.855,0.701-5.764,3.191-7.273l22.018-13.35l21.046,8.066
										L342.447,313.898z"/>
								</defs>
								<clipPath id="SVGID_00000127740129955951575360000000802460676040227494_">
									<use xlink:href="#SVGID_00000084531006855549884280000000814017849165874866_"  style="overflow:visible;"/>
								</clipPath>
								<g style="clip-path:url(#SVGID_00000127740129955951575360000000802460676040227494_);">
									<path style="fill:none;stroke:#FFFFFF;stroke-width:0.899;stroke-miterlimit:10;" d="M322.127,312.477
										c0,0-6.339-2.889-5.015-9.729"/>
									<path style="fill:none;stroke:#FFFFFF;stroke-width:0.899;stroke-miterlimit:10;" d="M318.748,313.786
										c0,0-6.339-2.889-5.015-9.729"/>
									<path style="fill:none;stroke:#FFFFFF;stroke-width:0.899;stroke-miterlimit:10;" d="M315.368,315.095
										c0,0-6.339-2.889-5.015-9.729"/>
									<path style="fill:none;stroke:#FFFFFF;stroke-width:0.899;stroke-miterlimit:10;" d="M311.988,316.404
										c0,0-6.339-2.889-5.015-9.729"/>
								</g>
							</g>
						</g>
						<g>
							<path style="fill:#122937;" d="M391.808,345.439c0.354,1.553-9.207,24.684-12.198,31.859
								c-0.667,1.601-1.839,2.924-3.342,3.788c-1.749,1.004-4.33,2.149-7.415,2.498c-3.982,0.45-5.923-4.38-6.755-7.502
								c-0.395-1.482-0.45-3.029-0.181-4.54l5.364-30.067L391.808,345.439z"/>
							<g>
								<path style="fill:none;stroke:#FFFFFF;stroke-width:0.899;stroke-miterlimit:10;" d="M381.685,352.82
									c0,0-6.125,3.32-10.787-1.857"/>
								<path style="fill:none;stroke:#FFFFFF;stroke-width:0.899;stroke-miterlimit:10;" d="M380.694,356.306
									c0,0-6.125,3.32-10.787-1.858"/>
								<path style="fill:none;stroke:#FFFFFF;stroke-width:0.899;stroke-miterlimit:10;" d="M379.703,359.793
									c0,0-6.125,3.32-10.787-1.858"/>
								<path style="fill:none;stroke:#FFFFFF;stroke-width:0.899;stroke-miterlimit:10;" d="M378.712,363.279
									c0,0-6.125,3.32-10.787-1.857"/>
							</g>
						</g>
					</g>
					<g>
						<path style="fill:#FBC02E;" d="M416.533,238.97l-20.762,106.735c0,0-18.068,16.178-31.561-5.333l7.046-83.728l-14.259-9.566
							l-12.156,63.599c0,0-22.739,6.149-26.084-9.163l11.304-87.773l35.018,2.635L416.533,238.97z"/>
						<g>
							<defs>
								<path id="SVGID_00000060750683003657841440000007824156199152906118_" d="M416.533,238.97l-20.762,106.735
									c0,0-18.068,16.178-31.561-5.333l7.046-83.728l-14.259-9.566l-12.156,63.599c0,0-22.739,6.149-26.084-9.163l11.304-87.773
									l35.018,2.635L416.533,238.97z"/>
							</defs>
							<clipPath id="SVGID_00000081607836126004277870000009266636069732321460_">
								<use xlink:href="#SVGID_00000060750683003657841440000007824156199152906118_"  style="overflow:visible;"/>
							</clipPath>
							<g style="clip-path:url(#SVGID_00000081607836126004277870000009266636069732321460_);">
								<path style="fill:none;stroke:#BD9123;stroke-width:1.0923;stroke-miterlimit:10;" d="M400.816,338.387
									c0,0-21.997,16.178-38.423-5.332"/>
								<path style="fill:none;stroke:#BD9123;stroke-width:0.9899;stroke-miterlimit:10;" d="M349.957,305.1
									c0,0-27.575,6.149-31.63-9.163"/>
								
									<line style="fill:none;stroke:#BD9123;stroke-width:0.9899;stroke-miterlimit:10;" x1="338.704" y1="306.313" x2="349.958" y2="242.719"/>
								<g>
									<path style="fill:none;stroke:#BD9123;stroke-width:0.9899;stroke-miterlimit:10;" d="M367.559,251.308l-2.817-2.237
										c-2.165-1.719-3.391-4.36-3.306-7.123l0.93-23.378"/>
									
										<line style="fill:none;stroke:#BD9123;stroke-width:0.9899;stroke-miterlimit:10;" x1="366.181" y1="250.214" x2="367.91" y2="222.508"/>
								</g>
								<path style="fill:none;stroke:#BD9123;stroke-width:1.0923;stroke-miterlimit:10;" d="M392.406,342.573
									c0.855-0.304,14.828-94.934,14.828-94.934"/>
							</g>
						</g>
					</g>
				</g>
				<g>
					<path style="fill:#FFFFFF;" d="M348.524,216.783c0,0,18.844,13.437,38.609,12.705l10.664-102.444l-37.212-3.786
						L348.524,216.783z"/>
					<g>
						<g>
							<path style="fill:#00796D;" d="M330.467,107.365c0,0,54.289-32.34,98.762,16.3c0,0,23.057,16.591,18.757,73.766
								c0,0-17.814,11.282-37.75-0.987l-0.318,25.267l-33.267,17.589c0,0-2.86-60.288,13.817-112.256l-23.011-0.259
								c0,0-12.007,78.792-13.501,109.157l-26.25-20.697l4.294-50.915c0,0-17.176-8.628-19.936-30.998L330.467,107.365z"/>
							<g>
								<defs>
									<path id="SVGID_00000066479860820967638800000013173321093345491604_" d="M330.467,107.365c0,0,54.289-32.34,98.762,16.3
										c0,0,23.057,16.591,18.757,73.766c0,0-17.814,11.282-37.75-0.987l-0.318,25.267l-33.267,17.589
										c0,0-2.86-60.288,13.817-112.256l-23.011-0.259c0,0-12.007,78.792-13.501,109.157l-26.25-20.697l4.294-50.915
										c0,0-17.176-8.628-19.936-30.998L330.467,107.365z"/>
								</defs>
								<clipPath id="SVGID_00000164492565990361887040000010972873262729451706_">
									<use xlink:href="#SVGID_00000066479860820967638800000013173321093345491604_"  style="overflow:visible;"/>
								</clipPath>
								<g style="clip-path:url(#SVGID_00000164492565990361887040000010972873262729451706_);">
									<path style="fill:none;stroke:#00524A;stroke-width:0.899;stroke-miterlimit:10;" d="M332.721,151.592
										c0,0-13.714-10.233-16.475-32.603"/>
									<path style="fill:none;stroke:#00524A;stroke-width:0.9764;stroke-miterlimit:10;" d="M449.957,185.517
										c0,0-18.029,12.746-39.684-0.58"/>
									<path style="fill:none;stroke:#00524A;stroke-width:0.899;stroke-miterlimit:10;" d="M365.217,133.926l-4.502,2.634
										c-0.615,0.461-1.505,0.212-1.777-0.507c-1.06-2.795-2.969-9.599-0.871-18.524"/>
									<g>
										<path style="fill:#00524A;" d="M390.293,147.462c-0.181,0.555-0.778,0.858-1.333,0.677
											c-0.555-0.181-0.858-0.778-0.677-1.333c0.181-0.555,0.778-0.858,1.333-0.677
											C390.171,146.31,390.474,146.906,390.293,147.462z"/>
										<path style="fill:#00524A;" d="M389.485,155.86c-0.181,0.555-0.778,0.858-1.333,0.677
											c-0.555-0.181-0.858-0.778-0.677-1.333c0.181-0.555,0.778-0.859,1.333-0.677
											C389.363,154.708,389.666,155.305,389.485,155.86z"/>
										<path style="fill:#00524A;" d="M388.677,164.258c-0.181,0.555-0.778,0.858-1.333,0.677
											c-0.555-0.181-0.858-0.778-0.677-1.333c0.181-0.555,0.778-0.859,1.333-0.677
											C388.554,163.107,388.858,163.703,388.677,164.258z"/>
										<path style="fill:#00524A;" d="M387.868,172.657c-0.181,0.555-0.778,0.859-1.333,0.677
											c-0.555-0.181-0.858-0.778-0.677-1.333c0.181-0.555,0.778-0.858,1.333-0.677
											C387.746,171.505,388.05,172.102,387.868,172.657z"/>
										<path style="fill:#00524A;" d="M387.06,181.055c-0.181,0.555-0.778,0.858-1.333,0.677
											c-0.555-0.181-0.858-0.778-0.677-1.333c0.181-0.555,0.778-0.858,1.333-0.677
											C386.938,179.903,387.241,180.5,387.06,181.055z"/>
										<path style="fill:#00524A;" d="M386.252,189.454c-0.181,0.555-0.778,0.858-1.333,0.677
											c-0.555-0.181-0.858-0.778-0.677-1.333c0.181-0.555,0.778-0.858,1.333-0.677
											C386.13,188.302,386.433,188.898,386.252,189.454z"/>
										<path style="fill:#00524A;" d="M385.444,197.852c-0.181,0.555-0.778,0.858-1.333,0.677
											c-0.555-0.181-0.858-0.778-0.677-1.333c0.181-0.555,0.778-0.858,1.333-0.677
											C385.322,196.7,385.625,197.297,385.444,197.852z"/>
										<path style="fill:#00524A;" d="M384.636,206.25c-0.181,0.555-0.778,0.858-1.333,0.677
											c-0.555-0.181-0.858-0.778-0.677-1.333c0.181-0.555,0.778-0.859,1.333-0.677
											C384.514,205.098,384.817,205.695,384.636,206.25z"/>
										<path style="fill:#00524A;" d="M383.828,214.649c-0.181,0.555-0.778,0.859-1.333,0.677
											c-0.555-0.181-0.858-0.778-0.677-1.333c0.181-0.555,0.778-0.858,1.333-0.677
											C383.705,213.497,384.009,214.094,383.828,214.649z"/>
										<path style="fill:#00524A;" d="M383.02,223.047c-0.181,0.555-0.778,0.858-1.333,0.677
											c-0.555-0.181-0.858-0.778-0.677-1.333c0.181-0.555,0.778-0.858,1.333-0.677
											C382.897,221.895,383.201,222.492,383.02,223.047z"/>
										<path style="fill:#00524A;" d="M382.211,231.445c-0.181,0.555-0.778,0.858-1.333,0.677s-0.858-0.778-0.677-1.333
											c0.181-0.555,0.778-0.858,1.333-0.677C382.089,230.294,382.392,230.89,382.211,231.445z"/>
									</g>
									<path style="fill:none;stroke:#00524A;stroke-width:0.899;stroke-miterlimit:10;" d="M389.09,138.551l4.257,4.652
										c1.209,1.511,3.608,1.083,4.217-0.754c2.783-8.401,7.796-27.692,0.232-40.141"/>
									<path style="fill:none;stroke:#00524A;stroke-width:0.899;stroke-miterlimit:10;" d="M410.236,196.444
										c-0.201-6.6-0.403-13.2-0.604-19.8c-0.333-10.935-2.087-22.891,1.332-33.454c2.042-6.307,5.848-11.126,10.961-15.234"/>
									
										<line style="fill:none;stroke:#00524A;stroke-width:0.899;stroke-miterlimit:10;" x1="332.001" y1="164.331" x2="334.513" y2="119.934"/>
								</g>
							</g>
						</g>
						<g>
							<path style="fill:#122937;" d="M400.768,67.245c0,0,3.366,23.427-2.971,29.06l-7.328,1.97c0,0-5.791-20.684-5.362-20.841
								c0.429-0.157,2.45-5.684,2.45-5.684L400.768,67.245z"/>
							<g>
								<g>
									<g>
										<path style="fill:#F5804C;" d="M348.325,93.765c-0.104,0.081-0.341,0.106-0.649,0.122
											c-1.405,0.074-4.286-0.026-2.816,4.262c1.792,5.229,6.895,9.216,6.895,9.216"/>
										<g>
											<path style="fill:#F5804C;" d="M395.095,100.826c0,0-1.697,26.412-21.871,28.716
												c-12.645,1.444-20.22-16.569-24.114-30.216c-2.229-7.813-3.342-15.9-3.415-24.024l-0.014-1.532
												c0,0,7.516-7.707,7.76-8.472c0.244-0.764,14.381-6.895,14.381-6.895l11.384-0.945c0,0,9.327,5.894,9.938,6.414
												c0.612,0.519-1.437,8.831-1.437,8.831l2.761,20.446c0,0,8.711-13.632,9.268-1.986
												C400.293,102.81,395.095,100.826,395.095,100.826z"/>
											<g>
												<path d="M356,93.227c0.606,0.72,1.681,0.812,2.401,0.206c0.72-0.606,0.812-1.681,0.206-2.401
													c-0.606-0.72-1.681-0.812-2.401-0.206S355.394,92.507,356,93.227z"/>
												<path d="M374.87,91.248c0.606,0.72,1.681,0.812,2.401,0.206c0.72-0.606,0.812-1.681,0.206-2.401
													c-0.606-0.72-1.681-0.812-2.401-0.206C374.356,89.453,374.264,90.528,374.87,91.248z"/>
												
													<path style="fill:none;stroke:#000000;stroke-width:0.9418;stroke-linecap:round;stroke-linejoin:round;stroke-miterlimit:10;" d="
													M366.566,108.105c-1.105,0.328-2.865,0.292-4.423-0.29c-1.021-0.382-1.542-1.514-1.17-2.538
													c0.515-1.418,1.244-3.62,1.653-5.73"/>
												
													<path style="fill:none;stroke:#000000;stroke-width:0.9418;stroke-linecap:round;stroke-linejoin:round;stroke-miterlimit:10;" d="
													M397.796,88.597c0,0-4.047,2.519-3.404,7.708"/>
												<path style="fill:#122937;" d="M382.596,86.152c-0.299,0.196-0.895,0.108-1.184,0.075
													c-0.901-0.103-1.791-0.107-2.7-0.105c-2.134,0.003-4.268,0.039-6.401,0.083c-0.664,0.014-1.328,0.029-1.992,0.045
													c-0.186,0.005-0.447,0.059-0.628,0.016c-0.451-0.108-0.48-0.697-0.277-1.034c0.272-0.451,0.867-0.463,1.313-0.634
													c1.704-0.65,3.475-1.193,5.285-1.442c1.42-0.195,2.869,0.147,4.182,0.678c0.53,0.214,1.069,0.408,1.575,0.676
													c0.358,0.19,0.957,0.81,1.001,1.227C382.793,85.941,382.72,86.071,382.596,86.152z"/>
												<path style="fill:#122937;" d="M349.258,89.158c0.332,0.131,0.898-0.077,1.174-0.168
													c0.862-0.284,1.731-0.47,2.621-0.654c2.09-0.433,4.186-0.832,6.284-1.225c0.653-0.122,1.306-0.243,1.959-0.363
													c0.183-0.034,0.45-0.033,0.618-0.113c0.419-0.198,0.328-0.781,0.06-1.069c-0.359-0.386-0.944-0.276-1.415-0.352
													c-1.8-0.289-3.646-0.459-5.469-0.333c-1.43,0.099-2.779,0.73-3.956,1.518c-0.475,0.318-0.963,0.617-1.404,0.983
													c-0.311,0.259-0.772,0.989-0.73,1.406C349.022,88.991,349.12,89.104,349.258,89.158z"/>
												<path style="fill:#FFFFFF;" d="M369.67,112.491c0,0,11.506-6.658,11.388-6.114c-0.118,0.543,0.635,6.939-7.042,9.807
													L369.67,112.491z"/>
											</g>
										</g>
									</g>
									<g>
										<path style="fill:#F5804C;" d="M367.457,126.786l2.47,4.072c3.618,5.964,11.951,7,16.782,1.968
											c0.065-0.068,0.13-0.137,0.194-0.206c0,0,2.501-2.692,2.501-2.693c6.469-6.965,6.722-17.138,5.812-26.027
											c-0.113-1.108-0.931-3.893-0.492-4.883l-4.256,9.583l-3.898,10.412l-10.009,5.917L367.457,126.786z"/>
										<g>
											<defs>
												<path id="SVGID_00000099627615708235651500000004289488319228423856_" d="M367.457,126.786l2.47,4.072
													c3.618,5.964,11.951,7,16.782,1.968c0.065-0.068,0.13-0.137,0.194-0.206c0,0,2.501-2.692,2.501-2.693
													c6.469-6.965,6.722-17.138,5.812-26.027c-0.113-1.108-0.931-3.893-0.492-4.883l-4.256,9.583l-5.836,7.582l-8.071,8.747
													L367.457,126.786z"/>
											</defs>
											<clipPath id="SVGID_00000075126149758246114850000009522144530595321776_">
												<use xlink:href="#SVGID_00000099627615708235651500000004289488319228423856_"  style="overflow:visible;"/>
											</clipPath>
											<path style="clip-path:url(#SVGID_00000075126149758246114850000009522144530595321776_);fill:#052A3D;" d="
												M367.268,129.171c12.459-0.282,19.693-8.004,23.2-15.977c0,0-3.232,19.067-19.852,20.031
												c-1.081,0.063-2.074-1.594-2.681-2.767L367.268,129.171z"/>
										</g>
									</g>
								</g>
								<g>
									<g>
										<path style="fill:#1255FF;" d="M344.453,66.296c0,0,1.098-31.938,41.6-25.87c3.14,0.47,5.537,2.894,5.379,5.681
											c-0.048,0.843-0.321,1.507-1.005,1.687c0,0,6.363,6.071,8.317,10.775C398.744,58.569,376.498,73.416,344.453,66.296z"/>
										
											<path style="fill:none;stroke:#000000;stroke-width:0.8795;stroke-linecap:round;stroke-linejoin:round;stroke-miterlimit:10;" d="
											M378.578,45.36c0,0,6.331-0.09,11.849,2.434"/>
									</g>
									<g>
										<g>
											<path style="fill:#1255FF;" d="M344.514,77.203c0,0,34.065,6.53,56.305-9.808l-2.075-8.826
												c0,0-22.773,11.677-54.291,7.727L344.514,77.203z"/>
											<g>
												<defs>
													<path id="SVGID_00000033341199931793757160000010199728103117818001_" d="M344.514,77.203
														c0,0,34.065,6.53,56.305-9.808l-2.075-8.826c0,0-22.773,11.677-54.291,7.727L344.514,77.203z"/>
												</defs>
												<clipPath id="SVGID_00000173152539412297296890000009217601474609076142_">
													<use xlink:href="#SVGID_00000033341199931793757160000010199728103117818001_"  style="overflow:visible;"/>
												</clipPath>
												<g style="clip-path:url(#SVGID_00000173152539412297296890000009217601474609076142_);">
													
														<line style="fill:none;stroke:#000000;stroke-width:0.8795;stroke-linecap:round;stroke-linejoin:round;stroke-miterlimit:10;" x1="348.156" y1="65.196" x2="348.575" y2="80.733"/>
													
														<line style="fill:none;stroke:#000000;stroke-width:0.8795;stroke-linecap:round;stroke-linejoin:round;stroke-miterlimit:10;" x1="353.481" y1="64.515" x2="356.396" y2="81.486"/>
													
														<line style="fill:none;stroke:#000000;stroke-width:0.8795;stroke-linecap:round;stroke-linejoin:round;stroke-miterlimit:10;" x1="361.553" y1="65.196" x2="361.287" y2="82.91"/>
													
														<line style="fill:none;stroke:#000000;stroke-width:0.8795;stroke-linecap:round;stroke-linejoin:round;stroke-miterlimit:10;" x1="365.9" y1="66.216" x2="369.016" y2="83.075"/>
													
														<line style="fill:none;stroke:#000000;stroke-width:0.8795;stroke-linecap:round;stroke-linejoin:round;stroke-miterlimit:10;" x1="371.314" y1="65.196" x2="376.878" y2="79.91"/>
													
														<line style="fill:none;stroke:#000000;stroke-width:0.8795;stroke-linecap:round;stroke-linejoin:round;stroke-miterlimit:10;" x1="378.578" y1="63.357" x2="382.013" y2="79.891"/>
													
														<line style="fill:none;stroke:#000000;stroke-width:0.8795;stroke-linecap:round;stroke-linejoin:round;stroke-miterlimit:10;" x1="385.054" y1="60.933" x2="388.447" y2="76.01"/>
													
														<line style="fill:none;stroke:#000000;stroke-width:0.8795;stroke-linecap:round;stroke-linejoin:round;stroke-miterlimit:10;" x1="390.427" y1="59.542" x2="395.386" y2="73.001"/>
													
														<line style="fill:none;stroke:#000000;stroke-width:0.8795;stroke-linecap:round;stroke-linejoin:round;stroke-miterlimit:10;" x1="396.006" y1="57.664" x2="398.481" y2="74.646"/>
												</g>
											</g>
										</g>
										
											<path style="fill:none;stroke:#000000;stroke-width:0.8795;stroke-linecap:round;stroke-linejoin:round;stroke-miterlimit:10;" d="
											M398.744,58.569c0,0-23.253,12.194-54.291,7.727"/>
									</g>
								</g>
							</g>
						</g>
					</g>
				</g>
			</g>
			<g>
				<g>
					<path style="fill:#F5804C;" d="M338.703,263.144c-0.153,2.147-2.017,3.763-4.164,3.61s-3.763-2.017-3.61-4.164
						c0.153-2.147,2.017-3.763,4.164-3.611C337.24,259.133,338.856,260.997,338.703,263.144z"/>
					<path style="fill:#F5804C;" d="M342.993,257.766c-0.153,2.147-2.017,3.763-4.164,3.61c-2.147-0.153-3.763-2.017-3.61-4.164
						c0.153-2.147,2.017-3.763,4.164-3.611S343.146,255.619,342.993,257.766z"/>
					<path style="fill:#F5804C;" d="M345.989,251c1.274,1.735,0.9,4.174-0.835,5.448c-1.735,1.274-4.174,0.9-5.447-0.835
						s-0.9-4.174,0.835-5.447S344.716,249.266,345.989,251z"/>
					<path style="fill:#F5804C;" d="M349.098,247.43c1.108,1.51,0.783,3.632-0.726,4.74c-1.51,1.108-3.632,0.783-4.74-0.726
						c-1.109-1.51-0.783-3.632,0.726-4.74C345.867,245.596,347.989,245.921,349.098,247.43z"/>
				</g>
				<g>
					<g>
						<g>
							<path style="fill:#265573;" d="M373.16,245.135l-20.226-6.165l-21.269,26.79c0,0,24.615,6.841,25.332,7.005
								C357.714,272.929,373.16,245.135,373.16,245.135z"/>
							<polygon style="fill:#24485E;" points="331.665,265.76 331.838,268.241 357.28,275.542 356.997,272.765 							"/>
							<polygon style="fill:#193342;" points="357.28,275.542 373.16,248.473 373.16,245.135 356.997,272.765 							"/>
						</g>
						<g>
							<path style="fill:#A6DCFF;" d="M368.658,247.464l-15.837-4.827l-16.654,20.976c0,0,19.273,5.357,19.835,5.485
								C356.563,269.227,368.658,247.464,368.658,247.464z"/>
							<g>
								<defs>
									<path id="SVGID_00000025425710400490530840000001359664409898070714_" d="M368.658,247.464l-15.837-4.827l-16.654,20.976
										c0,0,19.273,5.357,19.835,5.485C356.563,269.227,368.658,247.464,368.658,247.464z"/>
								</defs>
								<clipPath id="SVGID_00000128459788476491815340000011328595270611470981_">
									<use xlink:href="#SVGID_00000025425710400490530840000001359664409898070714_"  style="overflow:visible;"/>
								</clipPath>
								<g style="clip-path:url(#SVGID_00000128459788476491815340000011328595270611470981_);">
									
										<rect x="345.896" y="238.18" transform="matrix(0.8466 -0.5323 0.5323 0.8466 -83.2249 225.8594)" style="fill:#FFFFFF;" width="8.515" height="38.216"/>
									
										<rect x="356.31" y="233.64" transform="matrix(0.8466 -0.5323 0.5323 0.8466 -79.7004 229.0079)" style="fill:#FFFFFF;" width="2.129" height="38.216"/>
								</g>
							</g>
						</g>
					</g>
					<g>
						<path style="fill:#F5804C;" d="M384.351,261.118c0,0-13.314,4.72-20.425,9.658c0,0-4.938-2.173-1.383-5.925
							c3.555-3.753,5.728-6.123,5.728-6.123s-0.92-6.544,4.888-13.593l-8.049-2.416c0,0,6.093-5.069,11.539-3.418L384.351,261.118z"
							/>
						<g>
							<path style="fill:#F5804C;" d="M410.236,196.444l-0.318,25.267l-33.267,17.589l7.7,21.817l46.415-18.399
								c0,0,8.556-4.945,10.695-14.663c1.649-7.489,4.041-23.064,5.052-29.816C441.868,200.586,426.789,206.631,410.236,196.444z"/>
						</g>
					</g>
				</g>
			</g>
		</g>
	</g>
	<g>
		<path style="fill:#A44926;" d="M48.628,247.88c0.495,2.858,3.103,4.96,3.761,7.785c0.75,3.223-1.179,6.38-2.785,9.273
			c-1.606,2.893-2.933,6.582-1.136,9.361c1.32,2.041,3.919,2.865,5.538,4.677c2.321,2.598,2.122,6.551,1.412,9.961
			s-1.789,6.964-0.783,10.299c0.968,3.207,3.761,5.605,6.844,6.915c3.083,1.311,6.468,1.693,9.797,2.061
			c0.573,0.063,1.181,0.121,1.699-0.131c1.008-0.49,1.17-1.829,1.229-2.948c0.414-7.914,2.381-15.745,5.756-22.915
			c1.512-3.212,3.356-6.57,2.872-10.087c-0.252-1.835-1.128-3.525-1.538-5.331c-0.568-2.504-0.251-5.247-1.433-7.526
			c-1.302-2.511-4.072-3.818-6.578-5.129c-5.573-2.915-10.707-6.671-15.179-11.093c-2.533-2.504-3.47-5.303-6.66-2.383
			C49.599,242.359,48.193,245.371,48.628,247.88z"/>
		<g>
			<g>
				<g>
					<g>
						<g>
							<path style="fill:#FFA670;" d="M183.874,419.573c2.167-1.445,2.079-6.239-0.672-8.321c-4.252,0.827-7.53,1.747-7.53,1.747
								s-5.687-19.77-5.891-21.13l-11.617,12.978l8.153,17.936l3.926,5.521C175.605,427.059,180.292,423.872,183.874,419.573z"/>
							<path style="fill:#1255FF;" d="M197.741,410.222c-3.985-0.677-9.855,0.119-14.54,1.03c2.751,2.082,2.839,6.876,0.672,8.321
								c-3.582,4.298-8.269,7.486-13.632,8.73l2.264,3.184c20.29-4.17,26.34-11.701,28.13-16.149
								C201.529,413.12,200.099,410.623,197.741,410.222z"/>
						</g>
						<g>
							<g>
								<path style="fill:#1255FF;" d="M197.232,462.685l-12.89-12.36c1.061,1.549,2.158,3.086,3.255,4.623
									c1.241,1.738,1.87,4.663,1.126,6.682c-0.928,2.518-4.299,3.458-6.66,4.008c-3.03,0.706-6.17,0.539-9.18-0.18
									c-6.242-1.49-11.774-5.039-17.274-8.198c7.061,5.833,14.756,10.877,22.681,13.88c0,0,8.81,3.979,15.613,2.718
									C199.147,472.886,201.081,466.375,197.232,462.685z"/>
								<path style="fill:#FFA670;" d="M187.598,463.326c1.862-0.931,1.862-5.585,0-8.378c-1.098-1.537-2.194-3.074-3.256-4.623
									l-6.7-6.425l-19.457-47.021l-38.056,20.106c0,0,15.093,23.434,35.481,40.275
									C165.302,462.828,176.449,470.186,187.598,463.326z"/>
							</g>
							
								<line style="fill:none;stroke:#000000;stroke-width:0.9309;stroke-linecap:round;stroke-linejoin:round;stroke-miterlimit:10;" x1="171.189" y1="428.304" x2="158.185" y2="396.878"/>
						</g>
					</g>
					<path style="fill:#FF675D;" d="M72.962,259.073c0,0-14.826,30.215-7.704,67.96l18.86,10.246c0,0,12.454,66.81,29.69,91.024
						c0,0,63.715,0.477,61.824-52.566c0,0-18.516-36.677-25.994-75.134c0,0,4.985-11.751-0.356-20.653
						c-5.341-8.902-34.896-19.589-34.896-19.589L72.962,259.073z"/>
				</g>
				<g>
					<g>
						<path style="fill:#C7423A;" d="M111.317,374.282l-5.48-19.215c-10.229,6.227-22.711,8.747-34.589,5.977
							c1.4,6.695,3.251,13.789,5.692,20.919C89.336,384.001,101.545,381.434,111.317,374.282z"/>
						<path style="fill:#FF675D;" d="M105.837,355.068l-6.304-22.104c-1.8-6.31-5.425-12.001-10.584-16.056
							c-4.637-3.644-10.543-6.146-16.219-2.454c-3.82,2.485-7.625,8.025-7.472,12.58c0.231,6.857,2.824,18.867,5.99,34.011
							C83.126,363.815,95.608,361.294,105.837,355.068z"/>
						<g>
							<g>
								<path style="fill:#FFA670;" d="M113.809,383.019l-2.492-8.737c-9.772,7.152-21.981,9.719-34.377,7.681
									c1.873,5.47,4.094,10.962,6.73,16.311c3.372,6.843,10.306,11.315,17.933,11.178c2.995-0.054,6.429-0.666,10.298-2.164
									l20.527-6.218l5.65-15.597L113.809,383.019z"/>
								<path style="fill:#FFA670;" d="M153.831,384.741c-0.011-0.077-0.082-0.131-0.147-0.175
									c-0.373-0.246-11.535,2.801-11.105,1.064c7.353-1.36,10.082-2.531,10.095-2.542c0.204-0.181,0.506-0.718,0.152-0.935
									c-0.917-0.56-3.293-0.324-4.382-0.176c-2.027,0.275-4.079,0.368-6.123,0.273c-0.481-0.022-3.323-0.591-2.591-1.661
									c0.048-0.07,0.141-0.094,0.226-0.107c1.991-0.306,5.394-0.131,6.12-1.446c0.115-0.209,0.38-0.611,0.15-0.673
									c-1.084-0.293-2.247-0.467-2.892-0.607c-1.68-0.364-3.131-1.41-4.83-1.718c-2.247-0.408-3.818,1.321-5.306,2.721
									c-1.033,0.971-2.009,2.003-2.92,3.087c-0.608,0.723-1.514,1.569-1.694,2.49c-0.166,0.849-0.016,1.883-0.023,2.745
									c-0.025,3.095-0.051,6.189-0.076,9.284c-0.016,1.923-0.032,3.846-0.048,5.769c-0.001,0.088,3.667-0.934,3.992-1.063
									c1.328-0.528,2.591-1.216,3.754-2.044c1.192-0.848,2.09-1.897,3.148-2.878c1.008-0.934,2.593-1.003,3.877-1.239
									c1.644-0.301,3.258-0.762,4.894-1.103c0.322-0.067,0.682-0.161,0.843-0.445c0.385-0.678-0.554-1.551-1.152-1.711
									c-1.412-0.376-2.834-0.488-4.276-0.674c-1.167-0.151,1.511-1.285,1.951-1.497c2.894-1.395,6.745-2.029,8.364-3.778
									C153.887,385.642,153.843,384.82,153.831,384.741z"/>
							</g>
							
								<path style="fill:none;stroke:#000000;stroke-width:0.9309;stroke-linecap:round;stroke-linejoin:round;stroke-miterlimit:10;" d="
								M113.809,383.019c0,0,2.026,7.912-2.134,12.298"/>
						</g>
					</g>
					<g>
						<path style="fill:none;stroke:#AD463F;stroke-width:0.9309;stroke-miterlimit:10;" d="M105.837,355.068
							c0,0-6.336-24.716-6.338-24.722c-2.747-9.631-12.962-17.057-23.734-14.509c-4.971,1.176-10.694,5.624-10.506,11.197"/>
						<path style="fill:none;stroke:#AD463F;stroke-width:0.9309;stroke-miterlimit:10;" d="M113.809,333.852
							c2.33-1.01,19.787,4.057,26.963-15.206"/>
						<path style="fill:none;stroke:#AD463F;stroke-width:0.9309;stroke-miterlimit:10;" d="M78.085,315.484
							c0,0-3.691-12.202-0.122-28.494"/>
					</g>
				</g>
			</g>
			<g>
				<g>
					<path style="fill:#FFFFFF;" d="M107.48,278.918c0,0,12.715,0.6,9.505-5.752c-3.21-6.351-13.464-12.19-13.464-12.19
						L107.48,278.918z"/>
					<path style="fill:#FFFFFF;" d="M74.104,263.089c0,0-8.694,22.093,10.913,27.252c9.637,2.536,16.24,2.268,20.465,1.339
						c3.452-0.759,5.327-4.496,3.841-7.703l-2.344-5.057"/>
				</g>
				<g>
					<g>
						<path style="fill:#FFA670;" d="M75.753,256.821l-1.922,8.696c-0.625,5.549,2.107,10.949,6.97,13.696
							c6.361,3.593,15.929,6.316,26.178-0.293l2.562-12.685L75.753,256.821z"/>
						<path style="fill:#052A3D;" d="M108.945,269.188c-12.47,2.73-21.485-1.895-26.763-6.099c0,0,11.247,16.081,25.323,13.223
							L108.945,269.188z"/>
					</g>
					<g>
						<path style="fill:#A44926;" d="M75.89,249.219c1.862-9.309-2.793-18.618,3.724-26.996c6.161-8.471,20.812-11.061,26.061-4.978
							c-1.344-0.441-2.072-4.433-2.679-5.552c-1.59-2.935-3.998-5.168-6.749-7.002c-15.197-10.128-41.137-5.719-46.598,13.579
							c-5.127,18.114,6.335,30.56,10.72,35.012C66.478,254.209,74.22,254.229,75.89,249.219z"/>
						<g>
							<g>
								<path style="fill:#FFA670;" d="M105.68,217.247c-5.254-6.205-19.904-3.496-26.066,4.976
									c-6.516,8.378-1.862,17.687-3.724,26.996c-0.34,1.02-0.906,1.781-1.63,2.356c-2.472-1.942-5.388-3.144-8.74-2.513
									c-1.742,0.328-3.554,1.311-4.057,3.011c-0.027,0.091-0.044,0.184-0.063,0.277c-0.066-0.01-0.134-0.02-0.2-0.03
									c0.059,0.06,0.113,0.113,0.17,0.17c-0.149,0.951,0.117,1.954,0.606,2.793c0.562,0.962,1.394,1.737,2.26,2.439
									c3.257,2.638,7.505,4.474,11.611,3.628c1.061-0.218,2.152-0.674,2.747-1.569c4.3,4.588,15.836,14.176,33.883,8.46
									c4.174-1.322,7.108-5.108,7.326-9.48C120.278,249.258,118.988,231.605,105.68,217.247z"/>
								<g>
									
										<path style="fill:none;stroke:#000000;stroke-width:0.9309;stroke-linecap:round;stroke-linejoin:round;stroke-miterlimit:10;" d="
										M109.64,248.312c0,0,2.344-1.641,2.26-4.849c-0.022-0.841-0.665-1.532-1.495-1.671c-1.324-0.222-3.642-1.171-6.653-4.635"
										/>
									<path style="fill:#FFFFFF;" d="M109.116,253.282c0,0-13.629,4.661-13.135,4.957c0.494,0.296,5.528,4.275,13.135,0.515
										V253.282z"/>
									
										<path style="fill:none;stroke:#000000;stroke-width:0.9309;stroke-linecap:round;stroke-linejoin:round;stroke-miterlimit:10;" d="
										M86.392,243.743c0,0,1.888-3.399,6.893-4.627"/>
									<circle cx="89.558" cy="242.52" r="1.684"/>
									
										<path style="fill:none;stroke:#000000;stroke-width:0.9309;stroke-linecap:round;stroke-linejoin:round;stroke-miterlimit:10;" d="
										M102.647,232.207c0,0,1.888-3.399,6.893-4.627"/>
									<circle cx="105.813" cy="230.984" r="1.684"/>
									
										<path style="fill:none;stroke:#000000;stroke-width:0.9309;stroke-linecap:round;stroke-linejoin:round;stroke-miterlimit:10;" d="
										M64.051,253.74c-0.228-0.114,4.799-1.714,8.912,1.485"/>
								</g>
								<path style="fill:#122937;" d="M108.575,223.058c-0.139,0.234-0.576,0.373-0.785,0.447
									c-0.651,0.232-1.261,0.527-1.882,0.832c-1.459,0.716-2.906,1.455-4.351,2.2c-0.45,0.232-0.899,0.464-1.347,0.697
									c-0.126,0.065-0.286,0.19-0.424,0.221c-0.345,0.077-0.562-0.316-0.535-0.615c0.035-0.4,0.438-0.607,0.686-0.873
									c0.948-1.015,1.978-1.979,3.132-2.756c0.906-0.609,2.012-0.86,3.088-0.936c0.434-0.031,0.868-0.079,1.303-0.065
									c0.308,0.01,0.926,0.234,1.096,0.504C108.639,222.848,108.632,222.961,108.575,223.058z"/>
								<path style="fill:#122937;" d="M84.073,238.917c0.272-0.018,0.593-0.345,0.754-0.498c0.501-0.476,1.039-0.887,1.592-1.304
									c1.298-0.978,2.611-1.936,3.927-2.888c0.41-0.296,0.82-0.592,1.231-0.887c0.115-0.083,0.299-0.169,0.389-0.279
									c0.224-0.273-0.028-0.644-0.307-0.755c-0.373-0.149-0.74,0.117-1.089,0.218c-1.333,0.387-2.659,0.871-3.873,1.551
									c-0.952,0.533-1.675,1.407-2.229,2.332c-0.223,0.373-0.462,0.739-0.646,1.134c-0.13,0.279-0.21,0.932-0.045,1.205
									C83.856,238.879,83.96,238.924,84.073,238.917z"/>
							</g>
							<g>
								<circle style="fill:none;stroke:#FFFFFF;stroke-width:0.9309;stroke-miterlimit:10;" cx="90.847" cy="241.902" r="8.652"/>
								
									<ellipse transform="matrix(0.9239 -0.3827 0.3827 0.9239 -79.5787 59.7192)" style="fill:none;stroke:#FFFFFF;stroke-width:0.9309;stroke-miterlimit:10;" cx="110.325" cy="229.894" rx="8.652" ry="8.652"/>
								<path style="fill:none;stroke:#FFFFFF;stroke-width:0.9309;stroke-miterlimit:10;" d="M98.872,238.312
									c-0.937-1.284-0.655-3.084,0.629-4.02c1.284-0.936,3.084-0.655,4.02,0.629"/>
								
									<line style="fill:none;stroke:#FFFFFF;stroke-width:0.9309;stroke-miterlimit:10;" x1="82.29" y1="243.114" x2="70.186" y2="249.119"/>
							</g>
						</g>
					</g>
				</g>
			</g>
		</g>
	</g>
	<g>
		<g>
			<g>
				<g>
					<g>
						<path style="fill:#FBC02E;" d="M392.052,436.592l-14.061,13.501c-2.567,2.465-4.107,5.875-3.998,9.432
							c0.092,3.008,1.273,6.138,5.36,7.338c8.804,2.585,12.772-0.199,21.527-5.171c8.755-4.972,19.764-15.097,19.764-15.097
							l1.122-4.393L392.052,436.592z"/>
						<g>
							<path style="fill:none;stroke:#FFFFFF;stroke-width:0.899;stroke-miterlimit:10;" d="M397.95,448.814
								c0,0-6.915-0.844-7.714-7.765"/>
							<path style="fill:none;stroke:#FFFFFF;stroke-width:0.899;stroke-miterlimit:10;" d="M395.122,451.081
								c0,0-6.915-0.844-7.714-7.765"/>
							<path style="fill:none;stroke:#FFFFFF;stroke-width:0.899;stroke-miterlimit:10;" d="M392.294,453.347
								c0,0-6.915-0.844-7.714-7.765"/>
							<path style="fill:none;stroke:#FFFFFF;stroke-width:0.899;stroke-miterlimit:10;" d="M389.466,455.614
								c0,0-6.915-0.844-7.714-7.765"/>
						</g>
					</g>
					<g>
						<path style="fill:#FBC02E;" d="M391.599,402.843l-25.685,3.95c-2.9,0.446-5.584,1.955-7.276,4.353
							c-1.665,2.361-2.696,6.747,0.347,10.18c6.086,6.867,11.053,5.449,21.112,5.887c10.059,0.438,24.765-2.292,24.765-2.292
							l3.284-3.126L391.599,402.843z"/>
						<g>
							<path style="fill:none;stroke:#FFFFFF;stroke-width:0.899;stroke-miterlimit:10;" d="M381.985,417.179
								c0,0-5.136-4.707-1.763-10.802"/>
							<path style="fill:none;stroke:#FFFFFF;stroke-width:0.899;stroke-miterlimit:10;" d="M378.366,417.38
								c0,0-5.136-4.707-1.763-10.803"/>
							<path style="fill:none;stroke:#FFFFFF;stroke-width:0.899;stroke-miterlimit:10;" d="M374.747,417.58
								c0,0-5.136-4.707-1.762-10.802"/>
							<path style="fill:none;stroke:#FFFFFF;stroke-width:0.899;stroke-miterlimit:10;" d="M371.128,417.78
								c0,0-5.136-4.707-1.763-10.803"/>
						</g>
					</g>
				</g>
				<g>
					<path style="fill:#00796D;" d="M384.915,366.277l1.609,37.457c0,0,0.256,9.547,4.793,9.646l12.847-29.951L384.915,366.277z"/>
					<g>
						<path style="fill:#00796D;" d="M399.311,385.774l-8.747,19.359c0,0-5.129,7.865-1.821,18.754
							c3.308,10.889,3.308,12.704,3.308,12.704s9.075,19.661,31.156,6.655c0.984-7.309,0.972-15.31,4.904-21.753
							c0.901-1.475,11.853-16.206,13.809-14.848c0,0-33.697-23.413-33.697-23.413L399.311,385.774z"/>
						<g>
							<path style="fill:none;stroke:#004A43;stroke-width:0.899;stroke-miterlimit:10;" d="M415.84,446.596
								c0,0-10.984-22.316,12.208-44.632"/>
							<path style="fill:none;stroke:#004A43;stroke-width:0.899;stroke-miterlimit:10;" d="M399.311,385.774l-8.747,19.359
								c0,0-1.474,2.26-2.332,6.034"/>
						</g>
					</g>
				</g>
			</g>
			<g>
				<g>
					<path style="fill:#005CC9;" d="M404.856,289.389c0,0-16.995,8.04-20.737,29.02c0,0,0.535,11.436,6.446,17.255
						c0,0,8.932-18.597,13.929-35.92"/>
					<path style="fill:#005CC9;" d="M425.447,239.672c0,0-27.018,12.987-21.896,49.717l19.716-27.266L425.447,239.672z"/>
				</g>
				<g>
					<g>
						<path style="fill:#005CC9;" d="M501.368,313.518c0,0-27.245,3.237-38.071,28.674v16.815l-51.766,8.742
							c0,0,1.394,20.182,18.785,23.248l45.438-3.286c0,0,15.151,0.714,19.438-12.383
							C499.479,362.23,501.368,313.518,501.368,313.518z"/>
						<path style="fill:#005CC9;" d="M425.447,239.672c0,0,51.227-5.449,66.145,37.473c7.961,23.604,9.776,36.374,9.776,36.374
							l-49.811,95.173c0,0-44.562,2.117-66.643-31.76c0,0-6.845-26.531-5.348-41.397l4.423-20.791l6.574,20.921l13.463-37.048
							l-1.587-9.646l1.674-6.034l5.613-7.524l5.277-7.477L425.447,239.672z"/>
					</g>
					<g>
						<polygon style="fill:#FFFFFF;" points="439.375,289.695 432.81,298.395 443.557,297.455 444.56,296.294 						"/>
						<g>
							<path style="fill:none;stroke:#05346B;stroke-width:0.899;stroke-miterlimit:10;" d="M422.735,246.613
								c0,0,16.366-0.486,27.337,3.23"/>
							<polyline style="fill:none;stroke:#05346B;stroke-width:0.899;stroke-miterlimit:10;" points="447.891,261.933 
								428.803,272.391 430.334,281.473 421.523,284.945 414.735,308.091 							"/>
							<path style="fill:none;stroke:#05346B;stroke-width:0.899;stroke-miterlimit:10;" d="M501.368,313.518
								c0,0-21.558-0.624-34.025,17.037c-3.169,4.49-4.744,9.912-4.744,15.408l0.698,13.045l-51.766,8.742"/>
							<path style="fill:none;stroke:#05346B;stroke-width:0.899;stroke-miterlimit:10;" d="M410.03,360.461
								c0,0,1.677,28.01,22.421,30.932l29.274-2.128"/>
							<path style="fill:none;stroke:#05346B;stroke-width:0.899;stroke-miterlimit:10;" d="M463.297,359.008
								c0,0-0.594,3.666,3.379,8.742"/>
							<path style="fill:none;stroke:#05346B;stroke-width:0.899;stroke-miterlimit:10;" d="M384.915,376.932l29.017-64.875
								c0,0,6.072-11.7,17.026-13.189c8.311-1.129,12.959-1.439,12.959-1.439"/>
							<path style="fill:none;stroke:#05346B;stroke-width:0.899;stroke-miterlimit:10;" d="M410.02,324.668
								c0,0,9.48-13.449,38.109-9.924l5.137-7.836l12.188,4.98c0,0,28.274-31.485,17.621-46.086"/>
							<path style="fill:none;stroke:#05346B;stroke-width:0.899;stroke-miterlimit:10;" d="M405.505,300.749
								c0,0-5.996-7.886-0.649-19.276c6.267-7.591,10.85-13.625,13.155-19.349c0,0,3.596-14.498,7.436-21.818"/>
							<path style="fill:none;stroke:#05346B;stroke-width:0.899;stroke-miterlimit:10;" d="M383.991,314.744
								c0,0-1.196,14.262,9.546,23.515"/>
							<path style="fill:none;stroke:#05346B;stroke-width:0.899;stroke-miterlimit:10;" d="M432.565,298.654
								c0,0,5.728-5.952,7.107-9.594"/>
							<path style="fill:none;stroke:#05346B;stroke-width:0.899;stroke-miterlimit:10;" d="M403.598,297.429
								c0,0-1.999,5.372-3.013,10.662c-1.014,5.29-2.923,17.604-10.02,27.574"/>
							<path style="fill:none;stroke:#05346B;stroke-width:0.899;stroke-miterlimit:10;" d="M487.528,315.887
								c0,0-2.054-13.518-6.802-26.051"/>
							<path style="fill:none;stroke:#05346B;stroke-width:0.899;stroke-miterlimit:10;" d="M419.182,332.674
								c0,0,9.531,15.414,30.89,8.024"/>
						</g>
					</g>
					<g>
						<path style="fill:#05346B;" d="M411.836,338.82c0.04,0.997-0.737,1.838-1.734,1.877c-0.997,0.039-1.838-0.737-1.877-1.734
							c-0.04-0.997,0.737-1.838,1.734-1.877C410.956,337.046,411.797,337.823,411.836,338.82z"/>
						<path style="fill:#05346B;" d="M404.493,353.417c0.04,0.997-0.737,1.838-1.734,1.877c-0.997,0.039-1.838-0.737-1.877-1.734
							c-0.039-0.997,0.737-1.838,1.734-1.877C403.613,351.643,404.453,352.419,404.493,353.417z"/>
						<path style="fill:#05346B;" d="M397.149,368.013c0.04,0.997-0.737,1.838-1.734,1.877c-0.997,0.039-1.838-0.737-1.877-1.734
							c-0.039-0.997,0.737-1.838,1.734-1.877C396.269,366.239,397.11,367.016,397.149,368.013z"/>
					</g>
				</g>
			</g>
		</g>
		<g>
			<g>
				<path style="fill:#A85734;" d="M446.333,271.465l-6.661,17.594c-1.522,4.02,1.448,8.321,5.747,8.321
					c12.416,0,30.319-2.447,34.908-16.264c1.973-5.94,1.962-12.982,2.747-19.184l-9.081,6.002l-6.906,5.947l-10.397,1.53
					l-6.619-1.53L446.333,271.465z"/>
				<path style="fill:#052A3D;" d="M445.433,273.842c2.808,4.317,8.275,5.897,13.453,5.482c6.894-0.553,12.929-3.555,17.761-8.05
					c0,0-12.499,19.816-34.727,11.847L445.433,273.842z"/>
			</g>
			<g>
				<g>
					<path style="fill:#122937;" d="M454.922,211.823c3.624-4.532,8.698-7.733,14.071-9.924c10.773-4.394,23.315-3.792,31.696,4.981
						c13.816,14.462,9.905,49.812-14.142,50.888c-1.397,0.063-2.895-0.059-4.004-0.911c-1.32-1.013-1.755-2.784-2.04-4.423
						c-0.855-4.927-1.126-9.983-2.628-14.753c-1.502-4.77-4.514-9.389-9.145-11.277c-2.995-1.221-6.293-1.154-9.443-0.727
						c-2.241,0.303-5.353,1.374-7.527,0.213C447.157,223.432,452.837,214.431,454.922,211.823z"/>
					<ellipse style="fill:#122937;" cx="505.489" cy="209.288" rx="15.972" ry="17.366"/>
				</g>
				<g>
					<path style="fill:#A85734;" d="M448.13,228.161c0.931-2.386,2.118-4.634,3.962-6.359c3.724-3.484,6.342-4.392,11.205-3.796
						c14.286,1.749,23.039,17.568,21.064,33.928c-0.153,1.27,0.069,3.951,1.816,2.411c1.56-1.375,5.091-3.785,7.149-3.831
						c1.712-0.038,3.619,0.528,4.435,2.033c0.044,0.081,0.079,0.165,0.115,0.249c0.061-0.023,0.122-0.046,0.183-0.068
						c-0.044,0.069-0.084,0.129-0.126,0.195c0.331,0.869,0.28,1.869-0.014,2.76c-0.338,1.022-0.969,1.92-1.647,2.756
						c-2.55,3.144-6.196,5.728-10.243,5.75c-1.046,0.006-2.168-0.207-2.909-0.933c-3.145,5.194-12.081,17.799-30.273,15.994
						c-2.775-0.275-7.783-4.628-8.864-8.716c-1.724-6.517-2.419-13.342-1.887-20.067c0.418-5.278,1.933-10.37,3.689-15.34
						C446.568,232.911,447.228,230.472,448.13,228.161z"/>
					<g>
						
							<path style="fill:none;stroke:#000000;stroke-width:0.899;stroke-linecap:round;stroke-linejoin:round;stroke-miterlimit:10;" d="
							M452.253,261.986c0,0-2.467,0.886-3.949-1.836c-0.389-0.713-0.581-1.51-0.223-2.239c0.8-1.63,2.6-2.105,4.142-5.977"/>
						<g>
							
								<path style="fill:none;stroke:#000000;stroke-width:0.899;stroke-linecap:round;stroke-linejoin:round;stroke-miterlimit:10;" d="
								M470.878,250.237c0,0-2.605-2.704-7.581-2.609"/>
							<path d="M466.39,250.261c0.231,0.868,1.121,1.385,1.99,1.154c0.868-0.231,1.385-1.122,1.154-1.99
								c-0.231-0.868-1.122-1.385-1.99-1.154C466.676,248.502,466.159,249.392,466.39,250.261z"/>
							
								<path style="fill:none;stroke:#000000;stroke-width:0.899;stroke-linecap:round;stroke-linejoin:round;stroke-miterlimit:10;" d="
								M452.846,243.5c0,0-2.605-2.704-7.581-2.609"/>
							<path d="M448.358,243.524c0.231,0.868,1.121,1.385,1.99,1.154c0.868-0.231,1.385-1.121,1.155-1.99
								c-0.231-0.868-1.121-1.385-1.99-1.154C448.644,241.765,448.127,242.656,448.358,243.524z"/>
						</g>
						
							<path style="fill:none;stroke:#000000;stroke-width:0.899;stroke-linecap:round;stroke-linejoin:round;stroke-miterlimit:10;" d="
							M495.65,254.64c0.193-0.154-4.876-0.659-8.122,3.186"/>
						<path style="fill:#122937;" d="M473.687,247.924c-0.271,0.023-0.639-0.251-0.821-0.378c-0.567-0.395-1.162-0.719-1.771-1.047
							c-1.431-0.769-2.874-1.516-4.32-2.258c-0.45-0.231-0.9-0.461-1.351-0.69c-0.126-0.064-0.321-0.122-0.427-0.217
							c-0.263-0.236-0.07-0.641,0.188-0.793c0.346-0.204,0.749,0.003,1.109,0.05c1.377,0.18,2.76,0.456,4.064,0.944
							c1.022,0.383,1.87,1.136,2.557,1.967c0.277,0.335,0.569,0.66,0.811,1.023c0.171,0.256,0.349,0.889,0.227,1.184
							C473.895,247.853,473.799,247.914,473.687,247.924z"/>
						<path style="fill:#122937;" d="M445.147,236.787c0.175,0.208,0.63,0.273,0.848,0.312c0.68,0.121,1.33,0.311,1.993,0.509
							c1.557,0.466,3.106,0.956,4.654,1.451c0.482,0.154,0.963,0.309,1.444,0.465c0.135,0.044,0.313,0.14,0.455,0.148
							c0.353,0.019,0.502-0.405,0.427-0.695c-0.101-0.388-0.533-0.527-0.821-0.747c-1.102-0.845-2.277-1.626-3.544-2.201
							c-0.994-0.451-2.126-0.516-3.2-0.413c-0.433,0.041-0.869,0.065-1.296,0.151c-0.302,0.061-0.875,0.384-0.997,0.678
							C445.049,236.59,445.074,236.701,445.147,236.787z"/>
						
							<path style="fill:none;stroke:#000000;stroke-width:0.899;stroke-linecap:round;stroke-linejoin:round;stroke-miterlimit:10;" d="
							M452.222,268.314c0,0,3.661,3.097,8.938-0.38"/>
					</g>
				</g>
			</g>
		</g>
	</g>
</g>
</svg>
